<?xml version="1.0" standalone="no"?>
<!DOCTYPE svg PUBLIC "-//W3C//DTD SVG 20010904//EN"
 "http://www.w3.org/TR/2001/REC-SVG-20010904/DTD/svg10.dtd">
<svg version="1.0" xmlns="http://www.w3.org/2000/svg"
 width="2500.000000pt" height="2432.000000pt" viewBox="0 0 2500.000000 2432.000000"
 preserveAspectRatio="xMidYMid meet">

<g transform="translate(0.000000,2432.000000) scale(0.100000,-0.100000)"
fill="#000000" stroke="none">
<path d="M12025 24265 c-1163 -98 -2232 -540 -3150 -1301 -164 -136 -548 -520
-685 -684 -722 -869 -1164 -1899 -1284 -2993 -8 -71 -17 -131 -20 -134 -3 -3
-65 6 -138 20 -410 81 -693 108 -1118 108 -307 0 -488 -11 -760 -47 -2123
-282 -3904 -1757 -4585 -3799 -187 -558 -271 -1063 -282 -1675 -6 -320 3 -508
33 -765 155 -1317 766 -2529 1733 -3439 422 -397 863 -701 1397 -963 l214
-105 -56 -102 c-644 -1171 -853 -2522 -593 -3836 161 -817 514 -1603 1019
-2275 870 -1157 2153 -1936 3570 -2169 363 -60 660 -81 1045 -73 306 6 420 15
685 53 1305 185 2513 829 3383 1804 67 74 124 136 127 138 3 1 49 -46 101
-105 562 -640 1340 -1186 2129 -1496 649 -256 1267 -379 1965 -394 726 -15
1393 95 2068 341 1108 404 2100 1192 2753 2186 541 825 847 1735 915 2725 15
219 6 748 -16 945 -84 756 -302 1472 -633 2080 l-69 125 186 96 c861 444 1579
1090 2116 1904 511 776 809 1621 906 2575 17 171 23 694 10 890 -81 1209 -527
2318 -1312 3261 -132 159 -518 545 -677 677 -765 636 -1651 1055 -2591 1227
-342 62 -553 83 -916 91 -441 11 -905 -31 -1282 -115 -48 -11 -89 -18 -91 -17
-2 2 -10 75 -18 162 -107 1144 -557 2215 -1304 3104 -146 174 -508 536 -675
674 -925 767 -1992 1206 -3163 1301 -223 18 -722 18 -937 0z m5770 -7160 c49
-8 91 -19 93 -25 2 -5 12 -10 22 -10 29 0 168 -49 259 -91 137 -64 275 -162
391 -279 196 -195 317 -415 387 -703 17 -68 18 -299 23 -4182 3 -2260 1 -4148
-3 -4195 -23 -243 -122 -494 -277 -701 -107 -143 -322 -323 -482 -405 -74 -37
-191 -82 -275 -104 -188 -50 -153 -50 -2208 -50 l-1921 0 -1204 -591 c-4400
-2160 -6295 -3087 -6298 -3081 -1 5 252 828 563 1830 311 1002 565 1826 565
1832 0 7 -165 10 -478 10 -594 0 -686 10 -915 100 -490 192 -841 658 -885
1175 -4 55 -8 1927 -8 4160 1 3793 2 4066 18 4145 29 141 66 259 118 367 211
443 636 747 1120 802 41 5 2602 9 5690 10 4877 1 5627 -1 5705 -14z"/>
<path d="M12014 16691 c-41 -25 -58 -49 -198 -277 l-118 -192 -61 -7 -62 -7
-39 44 c-22 24 -104 112 -184 195 -164 174 -188 189 -268 158 -24 -9 -52 -27
-62 -40 -10 -12 -58 -131 -107 -263 l-88 -239 -52 -17 c-28 -9 -57 -16 -63
-16 -7 0 -107 68 -222 152 -189 135 -216 151 -258 155 -55 5 -101 -19 -131
-67 -12 -20 -31 -108 -55 -258 -20 -125 -39 -239 -42 -255 -4 -21 -18 -34 -55
-52 -26 -14 -53 -25 -59 -25 -6 0 -115 47 -242 105 -160 73 -242 105 -268 105
-45 0 -97 -33 -123 -78 -18 -31 -19 -46 -11 -298 l9 -265 -47 -39 -46 -40
-258 61 c-285 67 -303 68 -358 13 -55 -56 -55 -74 13 -358 l61 -258 -40 -46
-39 -47 -265 9 c-252 8 -267 7 -298 -11 -45 -26 -78 -78 -78 -123 0 -26 32
-108 105 -268 58 -127 105 -236 105 -242 0 -28 -51 -108 -72 -113 -13 -3 -127
-22 -255 -42 -248 -40 -278 -50 -314 -107 -15 -25 -19 -45 -16 -80 4 -42 20
-69 155 -258 84 -115 152 -215 152 -222 0 -6 -7 -34 -16 -63 l-17 -52 -240
-89 c-132 -49 -251 -97 -263 -107 -37 -29 -58 -96 -45 -145 11 -39 94 -124
359 -368 l43 -39 -7 -62 -7 -62 -212 -130 c-250 -154 -275 -178 -275 -251 0
-74 26 -97 277 -252 188 -116 213 -135 213 -157 0 -14 3 -42 6 -61 5 -35 3
-37 -190 -217 -168 -157 -197 -189 -206 -224 -10 -35 -9 -50 5 -85 9 -24 27
-52 39 -62 13 -10 131 -58 264 -107 l240 -90 16 -51 c9 -28 16 -56 16 -63 0
-7 -63 -100 -141 -207 -78 -108 -147 -208 -155 -222 -31 -61 -6 -143 56 -181
20 -12 108 -31 258 -55 125 -20 239 -39 255 -42 21 -4 34 -18 52 -55 14 -26
25 -54 25 -60 0 -6 -48 -116 -106 -243 -97 -213 -105 -235 -101 -279 3 -40 11
-56 41 -85 l37 -37 282 3 282 3 37 -44 37 -45 -60 -258 c-53 -226 -60 -263
-50 -295 15 -49 50 -85 98 -99 37 -11 63 -7 297 49 l258 61 46 -40 47 -39 -9
-261 c-9 -284 -8 -296 44 -345 21 -20 42 -29 77 -32 44 -4 68 4 280 101 128
58 237 106 243 106 6 0 33 -11 59 -25 37 -18 51 -31 55 -52 3 -16 22 -130 42
-255 24 -150 43 -238 55 -258 30 -48 76 -72 131 -67 42 4 69 20 258 155 115
84 215 152 222 152 6 0 34 -7 63 -16 l51 -17 89 -239 c49 -132 97 -250 107
-263 30 -38 97 -59 146 -46 40 11 103 73 363 354 l44 49 62 -7 61 -7 131 -212
c154 -251 178 -276 251 -276 74 0 97 26 252 276 l130 212 61 7 c59 6 61 6 92
-27 18 -18 100 -106 184 -195 174 -185 196 -199 277 -168 24 9 52 27 62 39 10
13 58 131 107 264 l90 240 51 16 c28 9 56 16 63 16 7 0 100 -63 207 -141 108
-78 208 -147 222 -155 60 -31 143 -6 181 56 11 19 30 103 51 228 57 346 45
306 100 336 26 14 53 26 59 26 7 0 116 -48 244 -106 213 -97 236 -105 280
-101 40 3 56 11 85 41 35 35 37 40 40 114 1 42 -1 168 -5 280 l-8 203 46 39
47 39 258 -60 c234 -55 262 -60 297 -49 48 14 83 50 98 100 10 33 4 67 -50
294 l-61 258 38 44 37 45 282 -3 282 -3 37 37 c30 29 38 45 41 85 4 44 -4 67
-101 280 -58 128 -106 237 -106 243 0 16 49 110 58 110 4 0 123 20 265 44 223
38 262 47 284 67 52 49 67 116 39 171 -8 14 -77 114 -155 222 -78 107 -141
200 -141 207 0 7 7 35 16 63 l16 51 240 90 c133 49 251 97 264 107 12 10 30
38 39 62 31 81 17 103 -168 277 -89 84 -177 166 -195 184 -33 31 -33 33 -27
92 l7 61 212 130 c250 155 276 178 276 252 0 73 -25 97 -276 251 l-212 131 -7
61 -7 62 44 39 c24 22 112 104 195 184 174 164 189 188 158 268 -9 24 -27 52
-40 62 -12 10 -131 58 -263 107 l-240 89 -16 51 c-9 29 -16 57 -16 63 0 7 68
107 152 222 135 189 151 216 155 258 3 35 -1 55 -16 80 -36 57 -66 67 -314
107 -128 20 -242 39 -255 42 -21 5 -72 85 -72 113 0 6 47 115 105 242 73 160
105 242 105 268 0 45 -33 97 -78 123 -31 18 -46 19 -298 11 l-265 -9 -39 47
-40 46 61 258 c68 284 68 302 13 358 -55 55 -73 54 -357 -13 l-259 -61 -46 40
-47 39 8 198 c4 109 6 235 5 280 -3 81 -4 84 -41 120 -35 35 -41 38 -95 38
-51 -1 -81 -12 -278 -103 -121 -56 -226 -102 -233 -102 -6 0 -34 11 -60 25
-56 28 -44 -13 -101 337 -21 125 -40 209 -51 228 -38 62 -121 87 -181 56 -14
-8 -114 -77 -222 -155 -107 -78 -200 -141 -207 -141 -7 0 -35 7 -63 16 l-51
16 -90 240 c-49 133 -97 251 -107 264 -10 12 -38 30 -62 39 -81 31 -103 17
-277 -168 -84 -89 -166 -177 -184 -195 -31 -33 -33 -33 -92 -27 l-61 7 -130
212 c-72 116 -141 221 -154 233 -53 48 -111 56 -164 24z m148 -883 c56 -16
128 -77 162 -138 28 -50 31 -63 31 -140 0 -73 -4 -92 -27 -136 -54 -104 -148
-159 -268 -158 -92 0 -157 30 -218 99 -54 62 -76 128 -70 214 15 200 190 316
390 259z m867 -534 c469 -133 870 -328 1238 -603 370 -277 687 -623 926 -1011
l64 -105 -169 -380 c-93 -209 -178 -407 -189 -440 -24 -70 -20 -131 13 -202
38 -80 79 -105 448 -269 190 -84 348 -155 352 -156 14 -5 28 -339 21 -490 l-6
-148 -203 0 c-183 0 -204 -2 -212 -17 -5 -10 -12 -94 -15 -188 -7 -216 -31
-305 -106 -396 -93 -112 -311 -175 -484 -140 -118 25 -248 112 -262 176 -3 11
-16 74 -31 140 -78 364 -190 560 -435 765 -68 57 -125 106 -126 109 -1 3 39
34 90 68 315 211 525 459 613 723 27 81 29 94 28 260 0 161 -2 182 -27 265
-60 197 -148 338 -311 500 -219 218 -435 332 -803 423 -62 15 -247 17 -2078
22 l-2010 5 135 135 c420 420 910 721 1475 904 121 39 330 93 397 102 l44 6
239 -252 c274 -289 296 -304 410 -304 107 0 134 18 435 307 l265 254 109 -24
c60 -13 134 -30 165 -39z m-4382 -2166 c108 -51 168 -146 168 -268 0 -90 -24
-149 -82 -207 -117 -117 -301 -118 -420 -1 -57 56 -85 123 -85 208 0 218 223
360 419 268z m7089 -16 c66 -34 101 -69 133 -134 95 -190 -29 -411 -240 -426
-86 -6 -152 16 -214 70 -90 79 -124 197 -91 313 14 46 29 70 74 115 35 35 75
63 102 73 63 23 181 18 236 -11z m-6126 -1187 l0 -1165 -524 0 -524 0 -36 148
c-57 240 -81 402 -96 675 -10 179 2 553 18 569 4 4 151 71 327 149 176 78 336
153 356 166 83 55 128 163 109 265 -5 25 -40 116 -79 202 l-69 156 259 0 259
0 0 -1165z m2970 1129 c87 -20 195 -73 252 -124 99 -87 130 -227 75 -336 -44
-87 -130 -144 -282 -186 -78 -22 -94 -22 -727 -26 l-648 -3 0 345 0 346 633 0
c532 0 642 -3 697 -16z m-251 -1679 c201 -48 355 -199 429 -420 12 -33 46
-184 77 -335 65 -319 96 -446 130 -536 70 -185 236 -384 382 -456 l68 -33 802
0 c442 0 802 -3 800 -7 -6 -19 -175 -223 -249 -301 l-83 -88 -325 71 c-353 77
-399 81 -477 41 -54 -27 -102 -76 -124 -126 -9 -22 -52 -200 -93 -395 -42
-195 -80 -357 -84 -361 -14 -13 -261 -108 -382 -147 -369 -119 -715 -172
-1123 -172 -403 0 -750 54 -1114 171 -127 42 -407 149 -420 162 -2 2 -39 169
-83 371 -60 279 -85 377 -105 411 -45 77 -129 126 -219 127 -29 1 -190 -29
-366 -67 l-315 -68 -68 74 c-38 41 -109 124 -158 184 l-88 110 1506 3 c1098 1
1510 5 1520 13 11 10 13 108 11 563 l-3 551 -462 3 -463 2 0 335 0 335 508 0
c418 0 518 -3 571 -15z m-2333 -2433 c56 -28 129 -112 148 -169 21 -60 20
-137 -1 -199 -23 -67 -110 -154 -177 -177 -142 -49 -300 14 -367 145 -26 51
-36 155 -20 214 23 87 98 167 188 200 55 21 177 13 229 -14z m4399 -17 c59
-28 103 -72 137 -138 18 -34 23 -58 23 -127 0 -76 -3 -91 -30 -139 -55 -100
-145 -154 -260 -154 -120 -1 -215 58 -267 168 -51 108 -34 231 44 320 91 103
230 131 353 70z"/>
</g>
</svg>
