<svg xmlns="http://www.w3.org/2000/svg" xmlns:xlink="http://www.w3.org/1999/xlink" xmlns:svgjs="http://svgjs.dev/svgjs" version="1.1" width="1500" height="1500" viewBox="0 0 1500 1500">
  <rect width="1500" height="1500" fill="#000000" opacity="0"/>
  <g transform="matrix(0.6666666666666666,0,0,0.6666666666666666,249.17607706818887,260.3967611336032)">
    <svg viewBox="0 0 252 247" data-background-color="#003366" preserveAspectRatio="xMidYMid meet" height="1470" width="1500">
      <g id="tight-bounds" transform="matrix(1,0,0,1,0.2076285788164114,-0.09999999999999432)">
        <svg viewBox="0 0 251.58474284236715 247.2" height="247.2" width="251.58474284236715">
          <g>
            <svg viewBox="0 0 395.52 388.62668258567777" height="247.2" width="251.58474284236715">
              <g transform="matrix(1,0,0,1,0,276.76085980086765)">
                <svg viewBox="0 0 395.52 111.86582278481012" height="111.86582278481012" width="395.52">
                  <g id="textblocktransform">
                    <svg viewBox="0 0 395.52 111.86582278481012" height="111.86582278481012" width="395.52" id="textblock">
                      <g>
                        <svg viewBox="0 0 395.52 111.86582278481012" height="111.86582278481012" width="395.52">
                          <g transform="matrix(1,0,0,1,0,0)">
                            <svg width="395.52" viewBox="2.2 -35 126.39 35.75" height="111.86582278481012" data-palette-color="#0c9cf8">
                              <path d="M4.45-35L4.45-25.05 11-25.05 10-22.9 4.45-22.9 4.45-6.6Q4.45-4.45 5.33-3.13 6.2-1.8 8.15-1.15L8.15-1.15 7.5 0.65Q4.7-0.15 3.45-1.9 2.2-3.65 2.2-6.6L2.2-6.6 2.2-35 4.45-35ZM16.2-25.05L16.2-8.4Q16.2-4.95 18.05-3.23 19.9-1.5 23.35-1.5L23.35-1.5Q26.55-1.5 28.45-3.18 30.35-4.85 30.35-8.15L30.35-8.15 30.35-25.05 32.6-25.05 32.6 0 30.4 0 30.55-2.95Q29.35-1.3 27.42-0.38 25.5 0.55 23.35 0.55L23.35 0.55Q13.95 0.55 13.95-8.65L13.95-8.65 13.95-25.05 16.2-25.05ZM39.8-25.05L39.7-23.05Q42.2-25.5 46.3-25.5L46.3-25.5Q47.7-25.5 50.05-25.05L50.05-25.05 49.45-22.95Q47.8-23.45 46.15-23.45L46.15-23.45Q43.55-23.45 41.67-22.45 39.8-21.45 39.8-19.7L39.8-19.7 39.8 0 37.55 0 37.55-25.05 39.8-25.05ZM54.74-25.05L54.74-23.7Q56.09-24.55 57.92-25 59.74-25.45 61.69-25.45L61.69-25.45Q64.74-25.45 66.69-24.5L66.69-24.5Q70.94-22.55 70.94-17.3L70.94-17.3 70.94 0 68.74 0 68.74-17.2Q68.74-20.45 66.74-21.95 64.74-23.45 61.69-23.45L61.69-23.45Q59.94-23.45 58.09-22.98 56.24-22.5 54.74-21.7L54.74-21.7 54.74 0 52.49 0 52.49-25.05 54.74-25.05ZM92.54-20.65L92.54-18.45 76.54-18.45 76.54-20.65 92.54-20.65ZM100.09-25.05L99.99-23.05Q102.49-25.5 106.59-25.5L106.59-25.5Q107.99-25.5 110.34-25.05L110.34-25.05 109.74-22.95Q108.09-23.45 106.44-23.45L106.44-23.45Q103.84-23.45 101.96-22.45 100.09-21.45 100.09-19.7L100.09-19.7 100.09 0 97.84 0 97.84-25.05 100.09-25.05ZM124.54-22.3Q124.39-22.4 123.76-22.73 123.14-23.05 122.09-23.35 121.04-23.65 119.74-23.65L119.74-23.65Q117.04-23.65 115.14-22.33 113.24-21 113.49-18.5L113.49-18.5Q113.64-16.75 115.24-15.83 116.84-14.9 119.99-13.95L119.99-13.95Q122.79-13.05 124.49-12.28 126.19-11.5 127.39-10.03 128.59-8.55 128.59-6.25L128.59-6.25Q128.59-3.25 126.36-1.25 124.14 0.75 119.84 0.75L119.84 0.75Q116.99 0.75 114.91-0.23 112.84-1.2 111.76-2.8 110.69-4.4 110.59-6.35L110.59-6.35 112.74-6.35Q113.04-4 115.01-2.68 116.99-1.35 119.84-1.35L119.84-1.35Q122.44-1.35 124.39-2.6 126.34-3.85 126.34-6.2L126.34-6.2Q126.34-7.8 125.39-8.85 124.44-9.9 123.06-10.53 121.69-11.15 119.34-11.9L119.34-11.9Q116.84-12.7 115.31-13.38 113.79-14.05 112.64-15.25 111.49-16.45 111.29-18.25L111.29-18.25Q111.24-18.5 111.24-18.95L111.24-18.95Q111.24-20.6 112.14-22.13 113.04-23.65 114.96-24.65 116.89-25.65 119.74-25.65L119.74-25.65Q121.29-25.65 122.54-25.33 123.79-25 124.49-24.65 125.19-24.3 125.34-24.2L125.34-24.2 124.54-22.3Z" opacity="1" transform="matrix(1,0,0,1,0,0)" fill="#0c9cf8" class="wordmark-text-0" data-fill-palette-color="primary" id="text-0"/>
                            </svg>
                          </g>
                        </svg>
                      </g>
                    </svg>
                  </g>
                </svg>
              </g>
              <g transform="matrix(1,0,0,1,85.788406079313,0)">
                <svg viewBox="0 0 223.94318784137397 223.94318784137397" height="223.94318784137397" width="223.94318784137397">
                  <g>
                    <svg/>
                  </g>
                  <g id="icon-0">
                    <svg viewBox="0 0 223.94318784137397 223.94318784137397" height="223.94318784137397" width="223.94318784137397">
                      <g>
                        <path d="M0 111.972c0-61.84 50.131-111.972 111.972-111.972 61.84 0 111.972 50.131 111.971 111.972 0 61.84-50.131 111.972-111.971 111.971-61.84 0-111.972-50.131-111.972-111.971zM111.972 213.855c56.269 0 101.883-45.615 101.883-101.883 0-56.269-45.615-101.883-101.883-101.884-56.269 0-101.883 45.615-101.884 101.884 0 56.269 45.615 101.883 101.884 101.883z" data-fill-palette-color="accent" fill="#0c9cf8" stroke="transparent"/>
                        <ellipse rx="110.85187798148011" ry="110.85187798148011" cx="111.97159392068698" cy="111.97159392068698" fill="#0c9cf8" stroke="transparent" stroke-width="0" fill-opacity="1" data-fill-palette-color="accent"/>
                      </g>
                      <g transform="matrix(1,0,0,1,50.2834693721568,59.47998888037342)">
                        <svg viewBox="0 0 123.37624909706037 104.98321008062713" height="104.98321008062713" width="123.37624909706037">
                          <g>
                            <svg version="1.1" x="0" y="0" viewBox="2.500529998730816 9.58164398162437 95.00021420381506 80.83749926306785" enable-background="new 0 0 100 100" xml:space="preserve" height="104.98321008062713" width="123.37624909706037" class="icon-cg-0" data-fill-palette-color="quaternary" id="cg-0">
                              <path d="M93.449 32.384C83.718 12.3 59.556 3.904 39.466 13.632 27.853 19.258 20.161 29.711 17.611 41.41c-1.388 1.032-2.705 2.045-3.919 3.03C4.7 51.732 1.184 57.039 2.937 60.66c0.002 0.004 0.004 0.006 0.004 0.009l6.471 13.362c1.322 2.725 4.762 4.127 10.226 4.166 1.694 0.011 3.603-0.122 5.657-0.368l-0.01 0.021 1.131-0.152c0.353-0.049 0.726-0.111 1.084-0.166 11.767 12.654 30.838 16.764 47.197 8.838C94.784 76.641 103.179 52.471 93.449 32.384zM19.659 74.902c-3.988-0.027-6.574-0.848-7.279-2.308l-4.334-8.937c7.931 1.055 22.359-3.052 35.561-7.846l-4.218-9.312c5.757 1.236 12.312 1.889 19.54 1.937 6.967 0.05 14.468-0.46 22.365-1.518C68.968 57.674 59.628 68.53 53.972 78.691l-4.617-10.189-2.799 0.904c-7.296 2.357-13.99 4.029-19.456 4.864l-0.001 0.001C24.326 74.693 21.817 74.916 19.659 74.902zM15.286 60.213c-3.61 0.422-8.467 0.721-9.384-0.988-0.868-1.793 2.5-6.464 10.972-13.14-0.388 3.944-0.199 7.969 0.608 11.952C16.706 58.775 15.964 59.504 15.286 60.213z" fill="#000000" data-fill-palette-color="quaternary"/>
                            </svg>
                          </g>
                        </svg>
                      </g>
                    </svg>
                  </g>
                </svg>
              </g>
              <g/>
            </svg>
          </g>
          <defs/>
        </svg>
        <rect width="251.58474284236715" height="247.2" fill="none" stroke="none" visibility="hidden"/>
      </g>
    </svg>
  </g>
</svg>
