<svg id="SvgjsSvg1210" width="680" height="470" xmlns="http://www.w3.org/2000/svg" version="1.1" xmlns:xlink="http://www.w3.org/1999/xlink" xmlns:svgjs="http://svgjs.com/svgjs"><defs id="SvgjsDefs1211"><marker id="SvgjsMarker1236" markerWidth="16" markerHeight="12" refX="16" refY="6" viewBox="0 0 16 12" orient="auto" markerUnits="userSpaceOnUse"><path id="SvgjsPath1237" d="M0,2 L14,6 L0,11 L0,2" fill="#323232" stroke="#323232" stroke-width="2"></path></marker><marker id="SvgjsMarker1256" markerWidth="16" markerHeight="12" refX="16" refY="6" viewBox="0 0 16 12" orient="auto" markerUnits="userSpaceOnUse"><path id="SvgjsPath1257" d="M0,2 L14,6 L0,11 L0,2" fill="#323232" stroke="#323232" stroke-width="2"></path></marker><marker id="SvgjsMarker1282" markerWidth="16" markerHeight="12" refX="16" refY="6" viewBox="0 0 16 12" orient="auto" markerUnits="userSpaceOnUse"><path id="SvgjsPath1283" d="M0,2 L14,6 L0,11 L0,2" fill="#323232" stroke="#323232" stroke-width="2"></path></marker><marker id="SvgjsMarker1286" markerWidth="16" markerHeight="12" refX="16" refY="6" viewBox="0 0 16 12" orient="auto" markerUnits="userSpaceOnUse"><path id="SvgjsPath1287" d="M0,2 L14,6 L0,11 L0,2" fill="#323232" stroke="#323232" stroke-width="2"></path></marker><marker id="SvgjsMarker1290" markerWidth="16" markerHeight="12" refX="16" refY="6" viewBox="0 0 16 12" orient="auto" markerUnits="userSpaceOnUse"><path id="SvgjsPath1291" d="M0,2 L14,6 L0,11 L0,2" fill="#323232" stroke="#323232" stroke-width="2"></path></marker><marker id="SvgjsMarker1294" markerWidth="16" markerHeight="12" refX="16" refY="6" viewBox="0 0 16 12" orient="auto" markerUnits="userSpaceOnUse"><path id="SvgjsPath1295" d="M0,2 L14,6 L0,11 L0,2" fill="#323232" stroke="#323232" stroke-width="2"></path></marker><marker id="SvgjsMarker1320" markerWidth="16" markerHeight="12" refX="16" refY="6" viewBox="0 0 16 12" orient="auto" markerUnits="userSpaceOnUse"><path id="SvgjsPath1321" d="M0,2 L14,6 L0,11 L0,2" fill="#323232" stroke="#323232" stroke-width="2"></path></marker><marker id="SvgjsMarker1324" markerWidth="16" markerHeight="12" refX="16" refY="6" viewBox="0 0 16 12" orient="auto" markerUnits="userSpaceOnUse"><path id="SvgjsPath1325" d="M0,2 L14,6 L0,11 L0,2" fill="#323232" stroke="#323232" stroke-width="2"></path></marker><marker id="SvgjsMarker1328" markerWidth="16" markerHeight="12" refX="16" refY="6" viewBox="0 0 16 12" orient="auto" markerUnits="userSpaceOnUse"><path id="SvgjsPath1329" d="M0,2 L14,6 L0,11 L0,2" fill="#323232" stroke="#323232" stroke-width="2"></path></marker><marker id="SvgjsMarker1332" markerWidth="16" markerHeight="12" refX="16" refY="6" viewBox="0 0 16 12" orient="auto" markerUnits="userSpaceOnUse"><path id="SvgjsPath1333" d="M0,2 L14,6 L0,11 L0,2" fill="#323232" stroke="#323232" stroke-width="2"></path></marker><marker id="SvgjsMarker1336" markerWidth="16" markerHeight="12" refX="16" refY="6" viewBox="0 0 16 12" orient="auto" markerUnits="userSpaceOnUse"><path id="SvgjsPath1337" d="M0,2 L14,6 L0,11 L0,2" fill="#323232" stroke="#323232" stroke-width="2"></path></marker></defs><g id="SvgjsG1212" transform="translate(298,25)"><path id="SvgjsPath1213" d="M 0 4Q 0 0 4 0L 96 0Q 100 0 100 4L 100 66Q 100 70 96 70L 4 70Q 0 70 0 66Z" stroke="#323232" stroke-width="2" fill-opacity="1" fill="#ffffff"></path><g id="SvgjsG1214"><text id="SvgjsText1215" font-family="微软雅黑" text-anchor="middle" font-size="13px" width="60" fill="#323232" font-weight="400" align="middle" anchor="middle" family="微软雅黑" size="13px" weight="400" font-style="" y="9.05" transform="rotate(0)"><tspan id="SvgjsTspan1216" dy="16" x="50"><tspan id="SvgjsTspan1217" style="text-decoration:;">Load </tspan></tspan><tspan id="SvgjsTspan1218" dy="16" x="50"><tspan id="SvgjsTspan1219" style="text-decoration:;">balancing </tspan></tspan><tspan id="SvgjsTspan1220" dy="16" x="50"><tspan id="SvgjsTspan1221" style="text-decoration:;">service</tspan></tspan></text></g></g><g id="SvgjsG1222" transform="translate(198,305)"><path id="SvgjsPath1223" d="M 0 4Q 0 0 4 0L 96 0Q 100 0 100 4L 100 66Q 100 70 96 70L 4 70Q 0 70 0 66Z" stroke="#323232" stroke-width="2" fill-opacity="1" fill="#ffffff"></path><g id="SvgjsG1224"><text id="SvgjsText1225" font-family="微软雅黑" text-anchor="middle" font-size="13px" width="67" fill="#323232" font-weight="400" align="middle" anchor="middle" family="微软雅黑" size="13px" weight="400" font-style="" y="1.05" transform="rotate(0)"><tspan id="SvgjsTspan1226" dy="16" x="50"><tspan id="SvgjsTspan1227" style="text-decoration:;">Streaming </tspan></tspan><tspan id="SvgjsTspan1228" dy="16" x="50"><tspan id="SvgjsTspan1229" style="text-decoration:;">media </tspan></tspan><tspan id="SvgjsTspan1230" dy="16" x="50"><tspan id="SvgjsTspan1231" style="text-decoration:;">protocol </tspan></tspan><tspan id="SvgjsTspan1232" dy="16" x="50"><tspan id="SvgjsTspan1233" style="text-decoration:;">processing</tspan></tspan></text></g></g><g id="SvgjsG1234"><path id="SvgjsPath1235" d="M555 60L476.5 60L476.5 60L398 60" stroke="#323232" stroke-width="2" fill="none" marker-end="url(#SvgjsMarker1236)"></path><rect id="SvgjsRect1238" width="100" height="16" x="426.5" y="52" fill="#ffffff"></rect><text id="SvgjsText1239" font-family="微软雅黑" text-anchor="middle" font-size="13px" width="100" fill="#323232" font-weight="400" align="top" anchor="middle" family="微软雅黑" size="13px" weight="400" font-style="" y="50.05" transform="rotate(0)"><tspan id="SvgjsTspan1240" dy="16" x="476.5"><tspan id="SvgjsTspan1241" style="text-decoration:;">Query load host</tspan></tspan></text></g><g id="SvgjsG1242" transform="translate(555,25)"><path id="SvgjsPath1243" d="M 0 4Q 0 0 4 0L 96 0Q 100 0 100 4L 100 66Q 100 70 96 70L 4 70Q 0 70 0 66Z" stroke="#323232" stroke-width="2" fill-opacity="1" fill="#ffffff"></path><g id="SvgjsG1244"><text id="SvgjsText1245" font-family="微软雅黑" text-anchor="middle" font-size="13px" width="38" fill="#323232" font-weight="400" align="middle" anchor="middle" family="微软雅黑" size="13px" weight="400" font-style="" y="25.05" transform="rotate(0)"><tspan id="SvgjsTspan1246" dy="16" x="50"><tspan id="SvgjsTspan1247" style="text-decoration:;">Player</tspan></tspan></text></g></g><g id="SvgjsG1248" transform="translate(25,25)"><path id="SvgjsPath1249" d="M 0 4Q 0 0 4 0L 96 0Q 100 0 100 4L 100 66Q 100 70 96 70L 4 70Q 0 70 0 66Z" stroke="#323232" stroke-width="2" fill-opacity="1" fill="#ffffff"></path><g id="SvgjsG1250"><text id="SvgjsText1251" font-family="微软雅黑" text-anchor="middle" font-size="13px" width="59" fill="#323232" font-weight="400" align="middle" anchor="middle" family="微软雅黑" size="13px" weight="400" font-style="" y="25.05" transform="rotate(0)"><tspan id="SvgjsTspan1252" dy="16" x="50"><tspan id="SvgjsTspan1253" style="text-decoration:;">Live push</tspan></tspan></text></g></g><g id="SvgjsG1254"><path id="SvgjsPath1255" d="M125 60L211.5 60L211.5 60L298 60" stroke="#323232" stroke-width="2" fill="none" marker-end="url(#SvgjsMarker1256)"></path><rect id="SvgjsRect1258" width="100" height="16" x="161.5" y="52" fill="#ffffff"></rect><text id="SvgjsText1259" font-family="微软雅黑" text-anchor="middle" font-size="13px" width="100" fill="#323232" font-weight="400" align="top" anchor="middle" family="微软雅黑" size="13px" weight="400" font-style="" y="50.05" transform="rotate(0)"><tspan id="SvgjsTspan1260" dy="16" x="211.5"><tspan id="SvgjsTspan1261" style="text-decoration:;">Query load host</tspan></tspan></text></g><g id="SvgjsG1262" transform="translate(25,188)"><path id="SvgjsPath1263" d="M 0 4Q 0 0 4 0L 96 0Q 100 0 100 4L 100 66Q 100 70 96 70L 4 70Q 0 70 0 66Z" stroke="#323232" stroke-width="2" fill-opacity="1" fill="#ffffff"></path><g id="SvgjsG1264"><text id="SvgjsText1265" font-family="微软雅黑" text-anchor="middle" font-size="13px" width="78" fill="#323232" font-weight="400" align="middle" anchor="middle" family="微软雅黑" size="13px" weight="400" font-style="" y="9.05" transform="rotate(0)"><tspan id="SvgjsTspan1266" dy="16" x="50"><tspan id="SvgjsTspan1267" style="text-decoration:;">Push Stream </tspan></tspan><tspan id="SvgjsTspan1268" dy="16" x="50"><tspan id="SvgjsTspan1269" style="text-decoration:;">Processing </tspan></tspan><tspan id="SvgjsTspan1270" dy="16" x="50"><tspan id="SvgjsTspan1271" style="text-decoration:;">Cluster</tspan></tspan></text></g></g><g id="SvgjsG1272" transform="translate(555,188)"><path id="SvgjsPath1273" d="M 0 4Q 0 0 4 0L 96 0Q 100 0 100 4L 100 66Q 100 70 96 70L 4 70Q 0 70 0 66Z" stroke="#323232" stroke-width="2" fill-opacity="1" fill="#ffffff"></path><g id="SvgjsG1274"><text id="SvgjsText1275" font-family="微软雅黑" text-anchor="middle" font-size="13px" width="71" fill="#323232" font-weight="400" align="middle" anchor="middle" family="微软雅黑" size="13px" weight="400" font-style="" y="17.05" transform="rotate(0)"><tspan id="SvgjsTspan1276" dy="16" x="50"><tspan id="SvgjsTspan1277" style="text-decoration:;">Live service </tspan></tspan><tspan id="SvgjsTspan1278" dy="16" x="50"><tspan id="SvgjsTspan1279" style="text-decoration:;">cluster</tspan></tspan></text></g></g><g id="SvgjsG1280"><path id="SvgjsPath1281" d="M75 95L75 141.5L75 141.5L75 188" stroke="#323232" stroke-width="2" fill="none" marker-end="url(#SvgjsMarker1282)"></path></g><g id="SvgjsG1284"><path id="SvgjsPath1285" d="M125 223L348 223L348 95" stroke="#323232" stroke-width="2" fill="none" marker-end="url(#SvgjsMarker1286)"></path></g><g id="SvgjsG1288"><path id="SvgjsPath1289" d="M75 258L75 281.5L248 281.5L248 305" stroke="#323232" stroke-width="2" fill="none" marker-end="url(#SvgjsMarker1290)"></path></g><g id="SvgjsG1292"><path id="SvgjsPath1293" d="M555 223L348 223L348 95" stroke="#323232" stroke-width="2" fill="none" marker-end="url(#SvgjsMarker1294)"></path><rect id="SvgjsRect1296" width="139" height="16" x="318" y="215" fill="#ffffff"></rect><text id="SvgjsText1297" font-family="微软雅黑" text-anchor="middle" font-size="13px" width="139" fill="#323232" font-weight="400" align="top" anchor="middle" family="微软雅黑" size="13px" weight="400" font-style="" y="213.05" transform="rotate(0)"><tspan id="SvgjsTspan1298" dy="16" x="387.5"><tspan id="SvgjsTspan1299" style="text-decoration:;">Send load information</tspan></tspan></text></g><g id="SvgjsG1300" transform="translate(25,375)"><path id="SvgjsPath1301" d="M 0 4Q 0 0 4 0L 96 0Q 100 0 100 4L 100 66Q 100 70 96 70L 4 70Q 0 70 0 66Z" stroke="#323232" stroke-width="2" fill-opacity="1" fill="#ffffff"></path><g id="SvgjsG1302"><text id="SvgjsText1303" font-family="微软雅黑" text-anchor="middle" font-size="13px" width="64" fill="#323232" font-weight="400" align="middle" anchor="middle" family="微软雅黑" size="13px" weight="400" font-style="" y="17.05" transform="rotate(0)"><tspan id="SvgjsTspan1304" dy="16" x="50"><tspan id="SvgjsTspan1305" style="text-decoration:;">Nats </tspan></tspan><tspan id="SvgjsTspan1306" dy="16" x="50"><tspan id="SvgjsTspan1307" style="text-decoration:;">Streaming</tspan></tspan></text></g></g><g id="SvgjsG1308" transform="translate(555,375)"><path id="SvgjsPath1309" d="M 0 4Q 0 0 4 0L 96 0Q 100 0 100 4L 100 66Q 100 70 96 70L 4 70Q 0 70 0 66Z" stroke="#323232" stroke-width="2" fill-opacity="1" fill="#ffffff"></path><g id="SvgjsG1310"><text id="SvgjsText1311" font-family="微软雅黑" text-anchor="middle" font-size="13px" width="62" fill="#323232" font-weight="400" align="middle" anchor="middle" family="微软雅黑" size="13px" weight="400" font-style="" y="9.05" transform="rotate(0)"><tspan id="SvgjsTspan1312" dy="16" x="50"><tspan id="SvgjsTspan1313" style="text-decoration:;">Static </tspan></tspan><tspan id="SvgjsTspan1314" dy="16" x="50"><tspan id="SvgjsTspan1315" style="text-decoration:;">streaming </tspan></tspan><tspan id="SvgjsTspan1316" dy="16" x="50"><tspan id="SvgjsTspan1317" style="text-decoration:;">service</tspan></tspan></text></g></g><g id="SvgjsG1318"><path id="SvgjsPath1319" d="M198 340L75 340L75 375" stroke="#323232" stroke-width="2" fill="none" marker-end="url(#SvgjsMarker1320)"></path></g><g id="SvgjsG1322"><path id="SvgjsPath1323" d="M298 340L605 340L605 258" stroke="#323232" stroke-width="2" fill="none" marker-end="url(#SvgjsMarker1324)"></path></g><g id="SvgjsG1326"><path id="SvgjsPath1327" d="M605 188L605 141.5L605 141.5L605 95" stroke="#323232" stroke-width="2" fill="none" marker-end="url(#SvgjsMarker1328)"></path></g><g id="SvgjsG1330"><path id="SvgjsPath1331" d="M125 410L340 410L340 410L555 410" stroke="#323232" stroke-width="2" fill="none" marker-end="url(#SvgjsMarker1332)"></path></g><g id="SvgjsG1334"><path id="SvgjsPath1335" d="M605 375L605 316.5L605 316.5L605 258" stroke="#323232" stroke-width="2" fill="none" marker-end="url(#SvgjsMarker1336)"></path></g></svg>