<?xml version="1.0" standalone="no"?>
<!DOCTYPE svg PUBLIC "-//W3C//DTD SVG 20010904//EN"
 "http://www.w3.org/TR/2001/REC-SVG-20010904/DTD/svg10.dtd">
<svg version="1.0" xmlns="http://www.w3.org/2000/svg"
 width="2154.000000pt" height="1000.000000pt" viewBox="0 0 2154.000000 1000.000000"
 preserveAspectRatio="xMidYMid meet">

<g transform="translate(0.000000,1000.000000) scale(0.100000,-0.100000)"
fill="#000000" stroke="none">
<path d="M3965 9283 c-4 -37 -13 -124 -21 -193 -8 -69 -19 -165 -24 -215 -24
-204 -127 -744 -204 -1065 -165 -686 -226 -904 -317 -1134 -95 -237 -105 -299
-65 -418 13 -40 27 -90 30 -110 6 -44 -4 -52 -86 -69 -145 -31 -198 -93 -358
-416 -59 -121 -133 -257 -163 -304 -172 -267 -463 -584 -642 -700 -129 -84
-209 -121 -353 -163 -212 -62 -394 -86 -656 -86 -154 -1 -291 8 -415 26 -66
10 -49 -14 35 -49 394 -165 751 -280 1000 -324 147 -25 455 -23 636 5 397 62
867 228 1118 394 84 55 216 182 295 283 79 101 169 186 230 215 67 32 206 46
309 32 143 -21 161 -24 172 -31 15 -8 121 -106 259 -240 194 -186 358 -339
467 -433 29 -25 71 -62 178 -158 74 -67 224 -192 356 -296 21 -18 95 -77 164
-132 210 -166 648 -474 970 -682 168 -108 325 -207 350 -221 25 -14 137 -79
250 -144 424 -244 1083 -565 1475 -717 697 -270 1306 -453 1850 -553 132 -25
276 -52 320 -60 66 -12 258 -34 625 -70 30 -3 199 -6 375 -7 587 -2 1117 63
1755 217 255 61 802 224 948 282 35 14 66 23 68 20 9 -8 -146 -200 -235 -291
-132 -135 -403 -370 -510 -441 -159 -105 -365 -205 -640 -307 -63 -24 -116
-49 -119 -55 -3 -10 19 -13 90 -13 201 0 516 52 697 115 194 68 611 292 811
436 134 95 373 296 520 434 176 166 307 284 465 420 83 72 223 195 311 275
122 110 182 156 245 189 128 68 666 396 861 524 95 63 225 148 288 189 153 99
194 146 280 324 39 78 70 146 70 151 0 16 38 45 235 184 425 298 709 534 1046
869 331 329 544 595 786 978 202 319 310 543 398 822 24 74 77 218 119 319
111 269 158 425 196 644 34 203 43 315 37 477 -10 257 -43 376 -123 450 -52
48 -104 72 -217 101 -172 44 -385 35 -642 -28 -175 -42 -244 -64 -369 -119
-64 -29 -113 -44 -140 -44 -134 0 -426 -113 -655 -252 -142 -87 -348 -233
-454 -322 -276 -231 -938 -864 -1097 -1048 -18 -21 -38 -38 -45 -38 -7 0 -39
14 -70 30 -105 55 -93 62 -373 -213 -268 -263 -586 -552 -692 -629 -96 -69
-634 -253 -845 -289 -152 -25 -410 -116 -597 -210 -243 -122 -590 -345 -945
-609 -81 -59 -22 -41 245 74 180 78 282 109 425 130 111 17 363 21 385 7 28
-17 -398 -230 -808 -403 -182 -77 -639 -246 -765 -283 -99 -29 -336 -104 -344
-109 -4 -3 -140 -41 -304 -86 -429 -117 -932 -216 -1372 -269 -351 -43 -997
-64 -1265 -41 -133 11 -204 16 -389 30 -73 5 -201 19 -285 30 -83 10 -207 26
-276 35 -69 9 -159 22 -200 30 -327 62 -534 106 -775 166 -244 61 -391 105
-808 240 -118 38 -573 217 -717 281 -566 252 -1049 514 -1355 733 -254 182
-373 302 -445 449 -96 195 -109 312 -91 833 13 372 12 460 -20 1018 -26 474
-94 888 -193 1172 -55 156 -209 486 -239 512 -13 10 -16 3 -22 -56z"/>
<path d="M6060 7830 l0 -40 95 0 95 0 0 -600 0 -600 -95 0 -95 0 0 -40 0 -40
220 0 220 0 0 40 0 40 -85 0 -85 0 0 593 c0 325 4 585 9 577 5 -8 109 -295
232 -638 l224 -623 38 3 39 3 234 610 c128 336 238 619 243 630 6 13 10 -186
10 -567 l1 -588 -85 0 -85 0 0 -40 0 -40 270 0 270 0 0 40 0 40 -95 0 -95 0 0
600 0 600 95 0 95 0 0 40 0 40 -212 0 -213 0 -205 -536 c-113 -295 -207 -537
-210 -539 -3 -2 -93 239 -200 536 l-194 539 -218 0 -218 0 0 -40z"/>
<path d="M10422 7777 c-99 -57 -59 -207 55 -207 96 0 147 125 78 190 -29 27
-100 36 -133 17z"/>
<path d="M13452 7777 c-99 -57 -59 -207 55 -207 96 0 147 125 78 190 -29 27
-100 36 -133 17z"/>
<path d="M9785 7509 c-104 -19 -95 -8 -95 -109 l0 -90 -70 0 -70 0 0 -40 0
-40 69 0 69 0 4 -297 c4 -332 6 -343 71 -400 46 -40 105 -57 182 -50 109 8
172 58 210 166 17 49 11 61 -32 61 -16 0 -27 -13 -46 -54 -17 -37 -35 -60 -56
-70 -35 -19 -84 -21 -113 -5 -43 23 -48 61 -48 364 l0 285 125 0 125 0 0 40 0
40 -125 0 -125 0 0 105 c0 78 -3 105 -12 104 -7 -1 -35 -5 -63 -10z"/>
<path d="M12815 7509 c-104 -19 -95 -8 -95 -109 l0 -90 -70 0 -70 0 0 -40 0
-40 69 0 69 0 4 -297 c4 -332 6 -343 71 -400 46 -40 105 -57 182 -50 109 8
172 58 210 166 17 49 11 61 -32 61 -16 0 -27 -13 -46 -54 -17 -37 -35 -60 -56
-70 -35 -19 -84 -21 -113 -5 -43 23 -48 61 -48 364 l0 285 125 0 125 0 0 40 0
40 -125 0 -125 0 0 105 c0 78 -3 105 -12 104 -7 -1 -35 -5 -63 -10z"/>
<path d="M9030 7314 c-115 -31 -181 -102 -188 -204 -10 -140 43 -196 260 -276
65 -24 131 -50 148 -59 84 -43 80 -158 -7 -201 -52 -26 -194 -26 -241 -1 -47
25 -82 85 -95 161 -11 65 -12 66 -42 66 l-32 0 4 -127 c3 -71 6 -133 8 -139 7
-24 146 -49 265 -48 96 0 125 4 173 23 112 44 169 119 169 222 0 120 -61 177
-267 249 -191 68 -215 85 -215 156 0 84 75 132 191 121 99 -9 148 -50 170
-143 6 -27 13 -55 15 -61 2 -7 18 -13 35 -13 l32 0 -6 122 c-3 66 -10 125 -14
129 -13 13 -181 39 -247 38 -33 0 -86 -7 -116 -15z"/>
<path d="M11130 7315 c-297 -84 -401 -479 -187 -712 153 -166 443 -164 558 4
29 41 73 152 65 160 -2 2 -19 6 -37 9 -33 6 -34 5 -52 -46 -40 -114 -139 -178
-258 -167 -69 6 -115 30 -146 76 -37 54 -46 98 -50 242 -7 200 28 312 109 356
45 24 180 25 224 1 l31 -17 -24 -50 c-29 -57 -25 -96 11 -130 36 -34 84 -37
125 -9 92 62 51 192 -83 258 -80 40 -197 50 -286 25z"/>
<path d="M11999 7316 c-64 -17 -128 -57 -176 -109 -52 -56 -79 -109 -98 -189
-64 -274 93 -516 347 -535 139 -10 244 31 311 123 34 46 74 140 64 150 -2 3
-20 7 -39 10 -32 6 -36 4 -41 -22 -10 -50 -63 -121 -111 -149 -86 -50 -225
-44 -280 14 -46 48 -69 117 -74 224 l-5 97 283 0 283 0 -6 59 c-8 73 -38 156
-77 209 -77 107 -238 157 -381 118z m181 -74 c46 -23 79 -88 87 -175 l6 -67
-187 0 -187 0 6 38 c19 109 61 182 120 208 42 19 114 17 155 -4z"/>
<path d="M7760 7270 l0 -39 70 -3 71 -3 159 -353 c88 -195 160 -360 160 -368
0 -21 -134 -308 -171 -366 -32 -49 -33 -50 -42 -27 -22 61 -34 74 -69 83 -50
13 -92 -6 -113 -51 -21 -43 -13 -92 18 -120 74 -67 157 -56 235 32 57 65 117
188 352 718 l202 457 69 0 69 0 0 40 0 40 -175 0 -175 0 0 -40 0 -39 64 -3 65
-3 -110 -245 c-61 -135 -114 -248 -118 -253 -6 -6 -231 475 -231 496 0 4 27 7
60 7 l60 0 0 40 0 40 -225 0 -225 0 0 -40z"/>
<path d="M10250 7270 l0 -40 70 0 70 0 0 -320 0 -320 -70 0 -70 0 0 -40 0 -40
225 0 225 0 0 40 0 40 -70 0 -70 0 0 360 0 360 -155 0 -155 0 0 -40z"/>
<path d="M13280 7270 l0 -40 70 0 70 0 0 -320 0 -320 -70 0 -70 0 0 -40 0 -40
225 0 225 0 0 40 0 40 -70 0 -70 0 0 360 0 360 -155 0 -155 0 0 -40z"/>
</g>
</svg>
